<svg id="visual" viewBox="0 0 1920 1080" width="1920" height="1080" xmlns="http://www.w3.org/2000/svg" xmlns:xlink="http://www.w3.org/1999/xlink" version="1.1"><rect x="0" y="0" width="1920" height="1080" fill="#001220"></rect><g fill="#c2a500"><circle r="135" cx="1320" cy="350"></circle><circle r="42" cx="1397" cy="873"></circle><circle r="62" cx="1114" cy="899"></circle><circle r="67" cx="963" cy="366"></circle><circle r="107" cx="354" cy="554"></circle><circle r="61" cx="1611" cy="327"></circle><circle r="44" cx="794" cy="667"></circle><circle r="56" cx="620" cy="146"></circle><circle r="42" cx="1885" cy="199"></circle><circle r="71" cx="315" cy="256"></circle><circle r="43" cx="1794" cy="698"></circle><circle r="68" cx="31" cy="1070"></circle><circle r="57" cx="547" cy="965"></circle><circle r="41" cx="1797" cy="1067"></circle><circle r="66" cx="1213" cy="39"></circle><circle r="42" cx="83" cy="394"></circle><circle r="57" cx="1208" cy="646"></circle><circle r="75" cx="62" cy="760"></circle><circle r="99" cx="912" cy="26"></circle><circle r="57" cx="1494" cy="594"></circle><circle r="75" cx="16" cy="100"></circle><circle r="79" cx="1490" cy="46"></circle><circle r="70" cx="663" cy="413"></circle><circle r="113" cx="281" cy="919"></circle></g></svg>