<svg id="visual" viewBox="0 0 1920 1080" width="1920" height="1080" xmlns="http://www.w3.org/2000/svg" xmlns:xlink="http://www.w3.org/1999/xlink" version="1.1"><rect x="0" y="0" width="1920" height="1080" fill="#002233"></rect><path d="M0 555L32 558.3C64 561.7 128 568.3 192 567.5C256 566.7 320 558.3 384 539.7C448 521 512 492 576 507.3C640 522.7 704 582.3 768 591.3C832 600.3 896 558.7 960 526.2C1024 493.7 1088 470.3 1152 464.3C1216 458.3 1280 469.7 1344 488.8C1408 508 1472 535 1536 528.2C1600 521.3 1664 480.7 1728 461.5C1792 442.3 1856 444.7 1888 445.8L1920 447L1920 1081L1888 1081C1856 1081 1792 1081 1728 1081C1664 1081 1600 1081 1536 1081C1472 1081 1408 1081 1344 1081C1280 1081 1216 1081 1152 1081C1088 1081 1024 1081 960 1081C896 1081 832 1081 768 1081C704 1081 640 1081 576 1081C512 1081 448 1081 384 1081C320 1081 256 1081 192 1081C128 1081 64 1081 32 1081L0 1081Z" fill="#fff700" stroke-linecap="round" stroke-linejoin="miter"></path></svg>